<svg width="14" height="27" viewBox="0 0 14 27" fill="none" xmlns="http://www.w3.org/2000/svg">
	<g clip-path="url(#clip0_5328_7339)">
		<path d="M6.80129 0.550781C8.59621 0.550781 10.0513 2.00587 10.0513 3.80078C10.0513 5.5957 8.59621 7.05078 6.80129 7.05078C5.00638 7.05078 3.5513 5.5957 3.5513 3.80078C3.5513 2.00587 5.00638 0.550781 6.80129 0.550781ZM12.8586 18.5364L10.4211 8.78643C10.3552 8.52275 10.203 8.28868 9.98881 8.12141C9.77458 7.95414 9.51059 7.86329 9.2388 7.86328H8.66192C7.50863 8.39359 6.14368 8.41649 4.94067 7.86328H4.3638C4.092 7.86329 3.82801 7.95414 3.61378 8.12141C3.39955 8.28868 3.24738 8.52275 3.18146 8.78643L0.743956 18.5364C0.551901 19.3046 1.13324 20.0508 1.9263 20.0508H4.77005V25.332C4.77005 26.0051 5.31569 26.5508 5.98879 26.5508H7.6138C8.2869 26.5508 8.83255 26.0051 8.83255 25.332V20.0508H11.6763C12.468 20.0508 13.051 19.3058 12.8586 18.5364Z" fill="#ED53F0" />
	</g>
	<defs>
		<clipPath id="clip0_5328_7339">
			<rect width="13" height="26" fill="white" transform="translate(0.300781 0.550781)" />
		</clipPath>
	</defs>
</svg>
