<svg width="10" height="26" viewBox="0 0 10 26" fill="none" xmlns="http://www.w3.org/2000/svg">
	<path d="M5.17166 0.875977C6.87732 0.875977 8.26006 2.25871 8.26006 3.96437C8.26006 5.67004 6.87732 7.05277 5.17166 7.05277C3.46599 7.05277 2.08326 5.67004 2.08326 3.96437C2.08326 2.25871 3.46599 0.875977 5.17166 0.875977ZM7.48796 7.82487H6.93977C5.84382 8.32881 4.54674 8.35057 3.40355 7.82487H2.85536C1.57609 7.82487 0.539062 8.8619 0.539062 10.1412V16.704C0.539062 17.3437 1.05758 17.8622 1.69721 17.8622H2.46931V24.425C2.46931 25.0646 2.98782 25.5832 3.62746 25.5832H6.71586C7.35549 25.5832 7.87401 25.0646 7.87401 24.425V17.8622H8.64611C9.28574 17.8622 9.80426 17.3437 9.80426 16.704V10.1412C9.80426 8.8619 8.76723 7.82487 7.48796 7.82487Z" fill="#0D62F4" />
</svg>
